<svg xmlns="http://www.w3.org/2000/svg" xmlns:xlink="http://www.w3.org/1999/xlink" width="600" zoomAndPan="magnify" viewBox="0 0 450 449.999984" height="600" preserveAspectRatio="xMidYMid meet" version="1.0"><path fill="#ffc024" d="M 280.367188 403.097656 C 272.378906 411.085938 259.433594 411.085938 251.445312 403.097656 C 243.457031 395.105469 243.457031 382.164062 251.445312 374.171875 L 380.164062 245.453125 L 20.453125 245.453125 C 9.160156 245.453125 0 236.304688 0 225 C 0 213.695312 9.160156 204.546875 20.453125 204.546875 L 380.164062 204.546875 L 251.445312 75.828125 C 243.457031 67.835938 243.457031 54.894531 251.445312 46.902344 C 259.433594 38.914062 272.378906 38.914062 280.367188 46.902344 L 444.003906 210.539062 C 448 214.53125 449.996094 219.765625 449.996094 225 C 449.996094 230.234375 448 235.46875 444.003906 239.460938 Z M 280.367188 403.097656 " fill-opacity="1" fill-rule="nonzero"/></svg>